<svg
   width="709.85107"
   height="722.59125"
   viewBox="0 0 154.17965 157.04184"
   version="1.1"
   xmlns="http://www.w3.org/2000/svg">
  <defs
     id="defs8">
    <path
       id="a"
       d="M 48.832,0.694 V 58.3 H 0.303 V 0.694 Z" />
    <path
       id="c"
       d="M 0.815,0.958 H 74.333 V 77.445 H 0.815 Z" />
    <path
       id="e"
       d="M 0.06,76.447 V 0.046 h 73.141 v 76.4 z" />
    <path
       id="g"
       d="M 0.06,0.278 V 80 H 73.206 V 0.278 Z" />
  </defs>
  <path
     d="m 53.939,39.707 c -0.566,-3.046 -0.283,-9.066 2.692,-15.015 -10.979,8.287 -11.12,15.015 -11.12,15.015 0,0 2.125,-1.629 8.428,0 M 48.84,21.575 c 0,0 -13.316,1.913 -17.14,2.267 -2.639,1.558 -5.666,5.914 -5.666,5.914 0,0 -3.117,0.46 -9.349,1.594 -4.334,2.827 -6.942,9.419 -1.559,14.802 -1.7,-0.354 -1.7,-0.354 -4.179,-0.779 -5.312,3.4 -2.833,9.704 8.216,7.508 -3.116,-0.106 -4.675,-1.629 -4.639,-3.613 -0.071,-2.16 4.144,-4.851 9.279,-3.47 -4.888,-9.243 0.53,-12.891 0.53,-12.891 0,0 -2.867,7.632 3.401,13.882 0.566,-0.92 2.443,-3.505 7.72,-3.611 5.257,-0.106 8.56,2.476 8.64,5.453 0.071,2.621 -3.258,5.383 -7.578,5.383 l -0.071,-6.262 c 0,0 -1.407,0.507 -1.806,1.062 0.006,0.288 -0.035,5.271 -0.035,5.271 -1.701,0 -5.17,-0.708 -7.012,-3.648 -1.417,-0.141 -9.314,-1.31 -9.314,-1.31 l 0.425,2.089 c 0,0 2.763,0.461 3.293,3.223 0.643,3.342 2.55,6.41 4.25,7.65 3.293,-0.39 8.747,-4.533 18.77,-4.392 -9.208,1.275 -18.557,11.119 -32.015,7.366 21.39,7.296 23.586,-8.924 50.358,-3.824 -4.178,-2.55 -10.411,-3.329 -10.411,-3.329 0,0 3.328,-3.613 3.47,-9.137 0.425,-0.027 0.992,-0.071 2.055,-0.177 0.354,-1.771 0.601,-3.568 0.601,-3.568 0,0 -5.843,-0.009 -10.747,-0.009 C 36.392,32.943 48.84,21.575 48.84,21.575 M 18.951,21.363 c 3.364,0.176 7.453,-1.914 7.72,-2.09 0,0 -1.417,3.577 1.77,3.365 3.46,-0.231 7.443,-2.005 8.004,-2.266 v -4.605 c -0.308,0.227 -3.68,2.61 -7.507,3.471 -1.398,0.314 -0.921,-0.921 -0.78,-1.629 0.142,-0.708 0.237,-1.287 -2.266,-0.248 -10.235,4.25 -10.766,1.346 -10.766,0.991 -0.424,0.497 -0.245,2.796 3.825,3.011 M 73.201,0.046 V 73.371 C 43.701,61.755 31.412,84.279 0,73.371 V 0.046 h 14.945 v 7.915 h 8.571 L 23.515,0.046 h 8.429 l 0.001,7.916 8.498,-10e-4 V 0.046 h 8.5 v 7.915 l 9.242,10e-4 V 0.046 h 15.016"
     mask="url(#f)"
     id="path33"
     transform="translate(-0.22437414,0.042)" />
  <path
     d="M 23.046,71.217 C 22.979,65.826 21.149,54.807 8.252,48.555 c 13.096,4.16 19.395,15.225 20.039,23.48 13.749,2.74 25.95,9.21 45.762,2.379 l 0.068,-0.043 c 0,0 -26.07,0.237 -36.972,-7.65 5.63,0.213 12.112,-1.062 14.236,-4.25 2.264,-3.395 2.498,-6.902 8.075,-7.082 3.133,-0.101 13.759,0.692 14.873,-14.91 -3.4,5.738 -7.082,8.11 -12.643,6.694 -3.55,-0.905 -10.03,-3.621 -14.661,1.912 -3.824,4.568 -7.931,6.94 -14.484,6.233 2.622,-3.541 41.683,-54.254 41.683,-54.254 0,0 -50.04,40.16 -52.802,42.497 C 20.895,36.23 23.09,33.539 26.029,30.316 28.434,27.68 32.615,24.109 29.287,16.575 26.596,10.484 26.95,6.8 34.28,0.958 28.436,1.383 19.519,5.313 20.574,16.044 c 0.638,6.48 -3.953,7.04 -5.631,7.968 C 10.588,26.42 10.02,33.432 9.879,38.886 9.385,37.115 3.047,9.863 0.816,1.045 0.814,1.05 0.815,74.37 0.815,74.37 H 0.983 C 9.475,71.025 16.54,70.514 23.046,71.216"
     mask="url(#d)"
     id="path22"
     transform="translate(79.775626,-0.95799999)" />
  <path
     d="m 101.352,99.824 c 0,0 -0.35,-0.174 0.316,-0.729 0.082,-0.069 0.21,0.083 0.597,0.087 0.521,0.007 0.794,-0.173 1.226,-0.693 0.654,-0.79 -0.709,-1.095 -1.15,-0.714 -0.487,0.414 -0.835,0.847 -1.25,1.227 0,0 -0.7,0.622 0.261,0.822 z m 25.252,37.041 c -1.168,0.955 -4.78,2.778 -5.684,3.203 -0.902,0.426 -1.192,0.683 -1.858,2.002 -0.815,1.612 -1.594,4.535 -1.382,4.744 2.231,-0.352 3.825,-2.229 3.825,-2.229 0,0 0.035,-0.46 -0.46,-1.242 -0.41,-0.644 0.39,-1.343 0.885,-0.937 0.377,0.31 0.903,0.373 1.222,0.105 0.318,-0.265 7.277,-4.69 7.596,-5.206 a 30.263,30.263 0 0 1 -2.497,-2.813 c 0,0 -0.478,1.416 -1.647,2.373 z M 99.407,117.458 c -2.975,-1.207 -3.64,-2.01 -4.197,-2.25 -0.496,-0.21 -2.544,0.66 -2.886,1.54 -0.92,2.373 -2.974,6.25 -3.275,6.8 -0.163,0.295 -0.337,0.638 -0.302,1.028 0.036,0.388 0.151,1.912 0.116,2.265 -0.036,0.356 0.017,0.817 0.158,1.17 0.142,0.354 0.33,1.875 1.107,3.4 1.736,-1.736 1.99,-4.296 1.877,-3.79 -0.003,0.013 0.55,-0.937 -0.832,-1.364 -0.393,-0.12 -0.335,-1.144 0.088,-1.275 0.514,-0.158 0.78,-0.302 1.028,-1.22 0.248,-0.923 1.182,-4.23 1.487,-4.87 0.047,-0.098 0.133,-0.264 0.305,-0.344 a 3.42,3.42 0 0 1 0.847,-0.252 c 0.13,-0.02 0.38,0.121 0.455,0.198 0.472,0.477 2.926,2.468 2.926,2.468 0,0 1.098,-0.105 1.771,-0.388 -0.426,-0.674 -0.602,-2.304 -0.673,-3.116 z m -3.002,-13.99 c 0,0 -1.036,1.276 0.133,1.595 0.027,0.37 0.173,1.103 0.32,1.487 0.194,0.513 0.53,0.345 0.902,-0.08 0.372,-0.425 0.97,-1.232 1.408,-1.7 0.398,-0.424 1.785,-0.272 1.222,0.583 -0.372,0.567 -0.664,0.72 -1.142,0.825 -0.378,0.083 -0.492,-0.24 -0.903,0.32 -0.433,0.586 -0.896,0.996 -0.133,0.996 0.398,0 1.155,0.371 1.66,0.29 0.475,-0.074 0.528,-0.384 0.58,-0.81 0.052,-0.442 -0.034,-0.699 0.461,-0.973 0.636,-0.356 1.575,-1.204 1.86,-1.505 0.324,-0.346 0.742,-0.266 1.167,-0.266 0.425,0 2.478,0.248 3.701,-1.585 0.861,-1.292 0.956,-3.053 0.637,-4.647 0.584,0.584 1.37,2.421 0.956,4.142 -0.736,3.067 -2.245,3.238 -3.772,3.56 -0.637,0.901 -2.266,3.221 -3.133,7.437 -0.372,0.247 -3.453,3.222 -0.877,8.103 -0.664,0.218 -2.622,1.056 -3.78,1.315 -0.779,0.18 -1.43,0.22 -1.744,0.595 -0.354,0.424 -1.169,1.807 -0.744,2.495 0.301,0.491 2.231,4.808 2.39,6.138 0.16,1.326 0.64,1.642 1.115,2.072 0.532,0.477 0.877,0.45 1.621,1.01 0.752,0.562 1.377,1.578 2.072,2.123 0.743,0.584 1.576,0.85 2.16,0.795 -0.142,-2.158 -0.603,-4.283 -1.275,-4.99 -0.699,-0.738 -1.576,0.316 -1.788,0.371 -0.212,0.052 -0.509,-0.153 -0.638,-0.745 -0.133,-0.612 0.426,-1.116 -0.106,-1.912 a 49.673,49.673 0 0 1 -2.046,-3.375 c -0.69,-1.35 0.482,-1.713 0.771,-1.644 0.691,0.157 4.834,0.717 5.471,0.77 0.637,0.051 0.99,0.16 1.276,-0.162 0.876,-0.98 1.38,-1.698 1.885,-2.709 0.93,0.693 0.292,2.021 0.027,3.595 0.265,0.232 6.268,3.26 14.52,1.064 3.445,-0.916 3.053,-0.194 3.381,0.442 2.001,3.88 3.418,5.38 5.791,7.278 0.708,0.567 1.203,1.487 1.522,2.017 0.32,0.533 0.4,1.478 0.142,2.092 -0.319,0.76 -2.162,4.066 -2.479,4.531 -0.602,0.886 -1.388,1.63 -2.055,1.983 -2.089,1.116 -2.61,2.118 -2.84,2.898 h 5.364 c 0,0 0.125,-0.28 0.062,-0.95 -0.089,-0.937 0.761,-1.095 1.027,-1.15 0.265,-0.053 0.744,0.158 1.168,-0.85 0.8,-1.898 3.914,-7.189 4.18,-7.668 0.265,-0.478 1.238,-1.755 0.283,-2.319 -1.807,-1.06 -2.867,-2.808 -3.223,-4.765 -0.142,-0.778 -0.057,-2.06 1.7,-4.248 3.754,-4.673 0.956,-14.306 -7.4,-14.129 -4.74,0.1 -7.378,-0.304 -10.466,-0.92 -1.129,-0.229 -1.322,-0.835 -1.08,-1.526 0.248,-0.707 0.487,-2.114 0.495,-2.69 -0.814,-0.743 -2.053,-1.203 -2.656,-1.415 -0.648,-0.229 -0.974,-0.746 -0.318,-0.797 0.655,-0.054 3.134,0.212 3.134,0.212 0,0 0.088,-1.328 -0.266,-3.276 a 14.29,14.29 0 0 0 -3.824,-1.028 c -0.373,-0.046 -0.7,-0.465 0.247,-0.6 1.24,-0.177 2.373,0.017 3.26,-0.037 0.052,-0.105 -0.426,-2.584 -1.303,-3.585 -0.61,-0.185 -0.934,-0.27 -3.054,-0.522 -0.744,-0.089 -0.78,-0.302 -0.284,-0.463 0.577,-0.182 1.532,-0.369 2.728,-0.292 -0.46,-0.635 -3.542,-6.257 -9.934,-4.565 0.716,0.875 1.062,1.282 1.274,1.885 0.191,0.54 -0.379,0.711 -0.902,0.161 -2.019,-2.127 -3.082,-2.074 -4.383,-2.314 0.85,0.825 1.222,1.65 1.514,2.471 -1.46,1.036 -3.532,3.506 -3.825,3.984 -0.556,0.91 0.213,1.4 0.213,1.4 z m 41.301,-14.235 c -6.533,2.283 -5.57,9.326 -3.806,12.041 2.302,3.541 4.25,3.612 5.72,7.772 1.145,3.246 -0.904,4.94 -2.923,5.684 3.453,2.127 7.012,-0.07 8.287,-2.195 2.348,-3.129 -0.312,-7.193 2.196,-9.314 0.671,-0.567 1.806,-0.956 3.33,-1.027 -1.525,-2.16 -5.1,-1.912 -6.535,0.107 -1.009,-2.338 -3.843,-4.382 -2.815,-8.004 0.673,-2.373 4.426,-3.258 5.842,-1.31 0.775,1.065 0.886,3.151 -1.38,4.214 1.416,-0.106 4.107,-2.55 2.266,-5.878 -1.293,-2.339 -3.47,-2.517 -5.24,-2.517 -3.224,0 -8.57,3.686 -5.153,11.635 -1.966,-1.752 -5.153,-7.862 0.211,-11.208 z m 16.301,-8.277 v 73.413 c -40.583,9.881 -41.754,-11.687 -73.2,0 0.003,0.953 -0.014,-73.42 0,-73.413 28.897,-12.112 40.16,10.836 73.2,0 z"
     id="path37"
     transform="translate(-0.22437414)" />
  <path
     d="m 26.629,45.795 c 0,0 -1.284,0.838 0.325,4.368 1.607,3.526 3.604,6.81 0.129,10.685 1.97,0.024 6.27,-2.574 1.669,-10.318 -1.058,-1.783 -2.2,-3.018 -2.123,-4.735 z m -4.353,1.663 c 1.064,-0.073 1.199,-1.375 1.006,-2.06 -0.227,-0.81 -1.577,-0.91 -1.902,0.12 -0.322,1.02 -0.041,2.01 -0.041,2.01 0.267,0.982 1.373,1.263 1.468,1.164 -0.614,-0.551 -0.448,-0.867 -0.531,-1.234 z m 1.023,4.687 c -0.257,3.117 -2.045,3.576 -2.045,3.576 -3.12,-1.433 -4.794,2.494 -2.175,3.65 3.318,1.467 5.349,-2.822 5.546,-3.615 0.559,-2.248 0.612,-3.838 0.36,-7.488 -0.212,-3.111 0.556,-3.582 1.068,-3.666 0.51,-0.088 1.578,-0.13 2.643,3.113 1.067,3.24 3.367,3.709 3.367,3.709 0,0 -3.331,-5.42 1.302,-10.424 2.154,-2.326 6.547,-3.648 5.734,-6.906 0,0 -0.68,1.168 -2.002,1.51 -1.322,0.34 -3.881,0.725 -3.881,0.725 0,0 6.142,-2.901 7.25,-6.226 0,0 1.919,3.198 -0.64,7.888 0,0 2.437,-0.871 5.059,0.312 6.683,2.963 5.974,12.48 -2.483,14.752 -12.035,3.229 -7.665,12.539 -0.773,13.11 -0.74,-0.47 -0.907,-3.276 0.303,-4.944 0.605,-0.537 1.685,-1.623 2.37,0.66 1.21,4.034 4.742,4.362 6.38,3.858 -0.43,-0.364 -1.235,-1.59 -1.135,-2.297 0.202,-1.412 1.966,0.055 2.607,0.236 4.74,1.346 7.26,0.17 7.53,-0.54 -1.058,-0.218 -0.873,-0.097 -1.546,-0.266 -0.626,-0.16 -1.843,-1.024 0.438,-1.547 4.186,-0.96 6.489,-5.28 3.732,-8.606 -2.632,-3.18 -5.95,-2.693 -7.027,-2.256 4.539,0.978 4.767,4.63 2.454,6.49 -2.017,1.514 -7.027,2.118 -8.742,-1.244 -1.084,0.784 -1.463,2.036 -1.277,3.598 -0.455,-0.17 -2.355,-2.873 0.469,-5.11 13.096,-8.443 10.983,-22.631 -0.101,-28.47 l -0.137,-0.06 C 37.892,19.891 29.095,25.163 29.095,25.163 c 6.217,-6.227 16.96,-2.523 18.506,-1.75 0,0 -1.236,-1.075 -1.894,-2.062 -0.852,-1.277 -0.82,-2.498 -0.82,-2.498 -4.264,2.38 -5.365,-1.277 -5.365,-1.277 0,0 -3.693,3.329 -6.09,0.622 -2.096,-2.37 1.297,-5.583 1.297,-5.583 -21.634,7.1 -17.534,19.317 -17.534,19.317 0,0 -3.133,2.877 -3.834,9.813 -0.797,7.877 3.127,13.478 8.03,11.939 1.123,-0.351 1.68,-0.887 1.897,-1.478 l 0.01,-0.061 z M 73.202,3.914 c 0.012,-0.007 -0.005,74.366 0,73.413 -31.45,-11.686 -32.618,9.88 -73.202,0 V 3.914 c 33.04,10.836 44.303,-12.112 73.202,0 z"
     mask="url(#h)"
     id="path42"
     transform="translate(-0.22437414,77.042)" />
</svg>
